<svg aria-hidden="true" style="position: absolute; width: 0; height: 0; overflow: hidden;" version="1.1" xmlns="http://www.w3.org/2000/svg" xmlns:xlink="http://www.w3.org/1999/xlink">
<defs>
<symbol id="icon-date-add" viewBox="0 0 20 20">
<path d="M15 2h2c1.105 0 2 0.895 2 2v0 14c0 1.105-0.895 2-2 2v0h-14c-1.105 0-2-0.895-2-2v0-14c0-1.1 0.9-2 2-2h2v-2h2v2h6v-2h2v2zM3 6v12h14v-12h-14zM9 11v-2h2v2h2v2h-2v2h-2v-2h-2v-2h2z"></path>
</symbol>
<symbol id="icon-old-phone" viewBox="0 0 20 20">
<path d="M17.256 12.253c-0.096-0.667-0.611-1.187-1.274-1.342-2.577-0.604-3.223-2.088-3.332-3.734-0.457-0.085-1.27-0.177-2.65-0.177s-2.193 0.092-2.65 0.177c-0.109 1.646-0.755 3.13-3.332 3.734-0.663 0.156-1.178 0.675-1.274 1.342l-0.497 3.442c-0.175 1.212 0.715 2.305 1.953 2.305h11.6c1.237 0 2.128-1.093 1.953-2.305l-0.497-3.442zM10 15.492c-1.395 0-2.526-1.12-2.526-2.5s1.131-2.5 2.526-2.5 2.526 1.12 2.526 2.5-1.132 2.5-2.526 2.5zM19.95 6c-0.024-1.5-3.842-3.999-9.95-4-6.109 0.001-9.927 2.5-9.95 4s0.021 3.452 2.535 3.127c2.941-0.381 2.76-1.408 2.76-2.876 0-1.024 2.392-1.271 4.655-1.271s4.654 0.247 4.655 1.271c0 1.468-0.181 2.495 2.76 2.876 2.513 0.325 2.558-1.627 2.535-3.127z"></path>
</symbol>
<symbol id="icon-person" viewBox="0 0 24 24">
<path d="M12 14.016q2.531 0 5.273 1.102t2.742 2.883v2.016h-16.031v-2.016q0-1.781 2.742-2.883t5.273-1.102zM12 12q-1.641 0-2.813-1.172t-1.172-2.813 1.172-2.836 2.813-1.195 2.813 1.195 1.172 2.836-1.172 2.813-2.813 1.172z"></path>
</symbol>
<symbol id="icon-support_agent" viewBox="0 0 24 24">
<path d="M21 12.234q0-2.063-0.727-3.75t-1.992-2.93-2.883-1.898-3.398-0.656-3.375 0.656-2.883 1.875-2.016 2.93-0.727 3.82q-0.469 0.234-0.727 0.703t-0.258 1.031v1.969q0 0.844 0.586 1.43t1.383 0.586h1.031v-6.094q0-1.453 0.539-2.719t1.5-2.227 2.227-1.5 2.719-0.539 2.719 0.539 2.227 1.5 1.5 2.227 0.539 2.719v7.078h-7.969v2.016h7.969q0.844 0 1.43-0.586t0.586-1.43v-1.219q0.422-0.234 0.703-0.656t0.281-0.984v-2.297q0-0.516-0.281-0.938t-0.703-0.656zM8.016 12.984q0-0.422 0.281-0.703t0.703-0.281 0.703 0.281 0.281 0.703-0.281 0.727-0.703 0.305-0.703-0.305-0.281-0.727zM14.016 12.984q0-0.422 0.281-0.703t0.703-0.281 0.703 0.281 0.281 0.703-0.281 0.727-0.703 0.305-0.703-0.305-0.281-0.727zM18 11.016q-0.234-1.406-1.078-2.555t-2.109-1.805-2.766-0.656q-1.125 0-2.25 0.445t-2.016 1.289-1.383 2.039-0.398 2.695q1.875-0.797 3.188-2.344t1.688-3.563q0.656 1.313 1.734 2.32t2.461 1.57 2.93 0.563z"></path>
</symbol>
<symbol id="icon-phone" viewBox="0 0 32 32">
<path d="M22 20c-2 2-2 4-4 4s-4-2-6-4-4-4-4-6 2-2 4-4-4-8-6-8-6 6-6 6c0 4 4.109 12.109 8 16s12 8 16 8c0 0 6-4 6-6s-6-8-8-6z"></path>
</symbol>
</defs>
</svg>
